<svg width="79" height="34" viewBox="0 0 79 34" fill="none" xmlns="http://www.w3.org/2000/svg">
<path fill-rule="evenodd" clip-rule="evenodd" d="M42.9826 0.00416069C41.6472 -0.0364211 40.352 0.464383 39.3907 1.39304C38.4293 2.32171 37.8831 3.59957 37.876 4.93694V4.95692C37.8774 6.28976 38.4192 7.56495 39.3772 8.49048C40.3353 9.41602 41.6276 9.91263 42.9583 9.8666C44.2942 9.90646 45.5898 9.40567 46.5523 8.4774C47.5148 7.54913 48.063 6.27171 48.073 4.93382V4.90385C48.0667 3.57179 47.5219 2.29903 46.5627 1.3757C45.6036 0.452374 44.3119 -0.0428504 42.982 0.00291189L42.9826 0.00416069ZM45.3909 4.95379C45.4229 5.61389 45.1835 6.25833 44.7284 6.73706C44.2733 7.2158 43.6421 7.48703 42.9819 7.48762C42.3203 7.47785 41.6906 7.20133 41.2353 6.72064C40.78 6.23995 40.5376 5.59573 40.563 4.93381V4.90384C40.5318 4.24647 40.7695 3.60474 41.2214 3.12672C41.6732 2.64869 42.3002 2.37567 42.9576 2.37063C43.6223 2.37823 44.2556 2.65448 44.7138 3.13661C45.1719 3.61873 45.4159 4.26578 45.3902 4.93069L45.3909 4.95379ZM73.6573 2.84894C73.6573 3.27729 73.9779 3.46586 75.2959 3.7612V3.76245C77.4659 4.23762 78.8201 4.94569 78.8201 6.71837V6.7446C78.8201 8.679 77.2944 9.82978 74.9965 9.82978C73.3767 9.8661 71.7992 9.30975 70.5598 8.26502L71.5485 7.07866C71.6361 6.95391 71.7631 6.86222 71.909 6.81828C72.1928 6.77472 72.4828 6.83717 72.7236 6.99374C73.4397 7.41989 74.257 7.64588 75.0901 7.64811C75.7931 7.64811 76.1673 7.41084 76.1673 6.99873V6.97563C76.1673 6.58101 75.8592 6.36309 74.5761 6.06899C72.5639 5.60381 71.0045 5.03748 71.0045 3.08809V3.06187C71.0045 1.30042 72.3999 0.0266396 74.6684 0.0266396C76.0749 -0.0288182 77.4553 0.418003 78.5631 1.28731L77.7423 2.44933L77.7324 2.46125C77.5734 2.65388 77.4417 2.81352 77.2632 2.85207C77.044 2.89383 76.8172 2.86085 76.6189 2.75841C76.559 2.72469 76.423 2.6585 76.423 2.6585C75.8563 2.37494 75.2338 2.22075 74.6004 2.20706C73.9649 2.20706 73.6573 2.4768 73.6573 2.8171V2.84894ZM62.3486 9.66553L62.8257 8.46792C62.8923 8.26305 63.0558 8.10436 63.2623 8.04395H66.6462L67.3098 9.6674H70.1211L66.1172 0.189587H63.9703C63.7153 0.211693 63.497 0.381589 63.4127 0.623547L59.5916 9.6674L62.3486 9.66553ZM64.8354 3.3016L65.892 5.99715H63.7625L64.8354 3.3016ZM55.8178 0.796517V5.20168L51.925 0.187099H50.1492C49.7764 0.188819 49.4752 0.492013 49.4756 0.865201V9.66554H52.0729V4.47113L56.1185 9.66554H58.4114V0.187099H56.4853C56.1346 0.175976 55.8386 0.445962 55.8172 0.796517H55.8178ZM36.8155 3.52828V3.55138L36.813 3.55263C36.8671 4.80107 36.1648 5.95926 35.0334 6.48732L37.2165 9.66616H34.1833L32.3569 6.95687H31.4275C31.2644 6.97543 31.1383 7.10878 31.1288 7.27282V9.66616H28.509V0.806504C28.5319 0.454736 28.8262 0.182652 29.1783 0.18772H32.8821C35.2742 0.18772 36.8155 1.42217 36.8155 3.52828ZM32.6933 4.90194C33.6264 4.90194 34.1934 4.42178 34.1934 3.67249V3.64564C34.1934 2.8308 33.6264 2.40058 32.6777 2.40058H31.535C31.3097 2.40264 31.128 2.58588 31.1277 2.81144V4.90194H32.6933ZM18.8889 2.49428V0.838986L18.8883 0.841484C18.9068 0.481833 19.1997 0.197609 19.5594 0.190231H27.1928V2.49678H24.681C24.5974 2.49202 24.5155 2.5211 24.4535 2.57746C24.3916 2.63383 24.3549 2.71276 24.3517 2.79649V9.66492H21.7263V2.49428H18.8889ZM10.1179 0.843983V9.66617H17.7276V7.42831H12.7108V6.28878C12.7138 6.10362 12.8538 5.94953 13.0377 5.92912H17.1376V3.85985H12.709V2.78275C12.7082 2.60359 12.8389 2.451 13.0158 2.42435H17.7257V0.187735H10.7916C10.4269 0.188587 10.1287 0.479064 10.1179 0.843983ZM3.31468 9.66617C3.31468 9.44061 3.3143 9.12401 3.3139 8.79472V8.79471C3.31305 8.09489 3.31214 7.33775 3.31468 7.27534C3.32261 7.1393 3.40917 7.02044 3.53611 6.97125C3.59456 6.95645 3.65507 6.9516 3.71513 6.95689H4.7256C5.42684 6.97779 6.12641 6.87702 6.79332 6.65905C7.50378 6.42753 8.11441 5.96092 8.52484 5.33594C8.90072 4.69374 9.0626 3.94843 8.98704 3.20797C8.95189 2.65793 8.77456 2.12648 8.47245 1.6657C7.76319 0.751985 6.6755 0.213089 5.51963 0.202722C5.36868 0.192732 5.21212 0.184614 5.06616 0.187736H1.86135L1.81989 0.187696H1.81988C1.37366 0.187058 0.693072 0.186085 0.693072 0.807144V9.66617H3.31468ZM6.37969 3.67188C6.37969 4.42117 5.81333 4.90133 4.8827 4.90133H3.31709V2.81083C3.31743 2.58528 3.49909 2.40203 3.7244 2.39998H4.8671C5.81582 2.39998 6.38218 2.83019 6.38218 3.64503L6.37969 3.67188Z" fill="#00A19C"/>
<path fill-rule="evenodd" clip-rule="evenodd" d="M7.24913 34C2.58302 34 0 31.1921 0 31.1921L2.55525 27.5307C2.55525 27.5307 4.80498 29.5679 7.30467 29.5679C8.30455 29.5679 9.38776 29.1825 9.38776 27.9987C9.38776 27.1018 8.07368 26.5608 6.45295 25.8936C3.84552 24.8201 0.444391 23.4199 0.444391 19.6851C0.444391 16.0513 3.52735 13.6563 7.47132 13.6563C11.7486 13.6563 13.8594 15.8861 13.8594 15.8861L11.8041 19.8227C11.8041 19.8227 9.80437 18.0884 7.41577 18.0884C6.41589 18.0884 5.30492 18.5289 5.30492 19.63C5.30492 20.5886 6.64366 21.1104 8.28523 21.7502C10.8865 22.764 14.2483 24.0742 14.2483 27.8886C14.2483 31.1645 11.7208 34 7.24913 34ZM22.9994 33.6696H18.1389V13.9867H22.9994V21.8598H30.2207V13.9867H35.0813V33.6696H30.2207V25.9616H22.9994V33.6696ZM38.9508 23.7043C38.9508 29.4853 43.3392 34 49.3385 34C55.3377 34 59.7261 29.4853 59.7261 23.7043C59.7261 18.0609 55.3377 13.6563 49.3385 13.6563C43.3392 13.6563 38.9508 18.0609 38.9508 23.7043ZM68.4572 33.6696H63.5967V13.9867H71.8457C75.7064 13.9867 78.3172 16.7946 78.3172 20.7587C78.3172 24.7228 75.7064 27.5858 71.8457 27.5858H68.4572V33.6696ZM68.4572 18.116V23.4565H70.8458C72.5401 23.4565 73.3733 22.3278 73.3733 20.7587C73.3733 19.1896 72.5401 18.116 70.9292 18.116H68.4572ZM43.6636 18.4781C43.6649 18.2129 43.7719 18.0114 43.9767 17.8885C44.3813 17.6457 45.2211 18.0332 45.5277 18.6041C45.6348 18.8035 45.7463 19.1937 45.8632 19.7785L46.0382 20.6543L50.2636 20.6702L54.4889 20.6863L54.6208 20.8215C54.7058 20.9086 54.7527 21.0284 54.7527 21.1583C54.7527 21.3866 53.8309 25.1479 53.689 25.4987C53.5654 25.8042 53.2996 26.0749 52.952 26.2495C52.6678 26.3922 52.6504 26.3931 49.9272 26.4083C48.4207 26.4167 47.179 26.4337 47.1677 26.446C47.1171 26.5011 47.2809 27.108 47.3702 27.1961C47.4572 27.2821 47.8279 27.2963 50.3742 27.3114L53.279 27.3287L53.4483 27.547C53.5918 27.7319 53.6133 27.8035 53.5885 28.0148C53.5553 28.2981 53.3534 28.5292 53.0885 28.587C52.9072 28.6266 52.9015 28.6489 52.9797 29.0129C53.1358 29.7401 52.5392 30.4025 51.8543 30.2622C51.404 30.1701 51.0053 29.4742 51.1475 29.0288C51.1961 28.8767 51.2388 28.7788 51.2084 28.7166C51.1488 28.5945 50.808 28.6098 49.6792 28.6221C48.1852 28.6383 48.1504 28.6415 48.1709 28.7634C48.1825 28.832 48.2037 29.0426 48.2181 29.2313C48.2416 29.54 48.2263 29.6013 48.0649 29.8442C47.759 30.3048 47.274 30.4197 46.8313 30.1366C46.5593 29.9627 46.3492 29.5718 46.3492 29.2397C46.3492 29.0177 46.4727 28.712 46.6459 28.505C46.7577 28.3714 46.7577 28.3712 46.5493 28.1438C46.4346 28.0186 46.2813 27.77 46.2087 27.5913C46.1282 27.393 45.7818 25.722 45.3202 23.3053C44.8933 21.0705 44.528 19.3 44.4819 19.2426C44.437 19.1867 44.3023 19.1239 44.1827 19.103C43.8672 19.048 43.662 18.8009 43.6636 18.4781Z" fill="#00A19C"/>
</svg>
